<svg width="26" height="27" viewBox="0 0 26 27" fill="none" xmlns="http://www.w3.org/2000/svg">
<path d="M12.9993 3.57508e-07C6.62413 -0.000847837 1.18956 4.78809 0.16884 11.3062C-0.851878 17.8244 2.84266 24.147 8.89128 26.2334C9.54273 26.3549 9.77596 25.9406 9.77596 25.5843C9.77596 25.2644 9.76553 24.4169 9.76162 23.2901C6.14606 24.0998 5.38255 21.4844 5.38255 21.4844C5.14453 20.6706 4.63283 19.9721 3.94023 19.5155C2.76762 18.6801 4.03014 18.699 4.03014 18.699C4.86488 18.8176 5.59955 19.3299 6.01967 20.0863C6.37528 20.756 6.97439 21.2509 7.68388 21.461C8.39338 21.671 9.15449 21.5789 9.7981 21.2051C9.85859 20.5222 10.1519 19.884 10.6255 19.4048C7.74081 19.0661 4.70765 17.9109 4.70765 12.7517C4.69164 11.4172 5.17005 10.1272 6.04443 9.14708C5.6488 7.98556 5.69539 6.71153 6.17472 5.58433C6.17472 5.58433 7.26525 5.22131 9.74729 6.9622C11.876 6.35762 14.1227 6.35762 16.2514 6.9622C18.7347 5.21996 19.824 5.58433 19.824 5.58433C20.3055 6.711 20.3521 7.98591 19.9543 9.14708C20.8318 10.1271 21.3099 11.4205 21.2884 12.7571C21.2884 17.9298 18.2527 19.0661 15.3576 19.3994C15.9821 20.0608 16.3024 20.968 16.2371 21.8906C16.2371 23.6909 16.2214 25.143 16.2214 25.5843C16.2214 25.9446 16.4534 26.363 17.1165 26.2307C23.1626 24.1408 26.8532 17.8177 25.8304 11.3013C24.8076 4.78495 19.3732 -0.00151035 12.9993 3.57508e-07Z" fill="#BAB2E7"/>
</svg>
